<?xml version="1.0" encoding="utf-8"?>
<!-- Svg Vector Icons : http://www.onlinewebfonts.com/icon -->
<!DOCTYPE svg PUBLIC "-//W3C//DTD SVG 1.1//EN" "http://www.w3.org/Graphics/SVG/1.1/DTD/svg11.dtd">
<svg version="1.1" xmlns="http://www.w3.org/2000/svg" xmlns:xlink="http://www.w3.org/1999/xlink" x="0px" y="0px" viewBox="0 0 1000 1000" enable-background="new 0 0 1000 1000" xml:space="preserve">
<g><path d="M500,10C229.4,10,10,229.4,10,500c0,270.6,219.4,490,490,490c270.6,0,490-219.4,490-490C990,229.4,770.6,10,500,10z M814.6,814.6c-40.9,40.9-88.5,73-141.4,95.4c-54.8,23.2-113.1,34.9-173.2,34.9c-60.1,0-118.4-11.8-173.2-34.9c-53-22.4-100.6-54.5-141.4-95.4s-73-88.5-95.4-141.4C66.8,618.4,55.1,560.1,55.1,500c0-60.1,11.8-118.4,34.9-173.2c22.4-53,54.5-100.6,95.4-141.4c40.9-40.9,88.5-73,141.4-95.4C381.7,66.8,439.9,55.1,500,55.1c60.1,0,118.4,11.8,173.2,34.9c53,22.4,100.6,54.5,141.4,95.4c40.9,40.9,73,88.5,95.4,141.4c23.2,54.8,34.9,113.1,34.9,173.2c0,60.1-11.8,118.4-34.9,173.2C887.6,726.2,855.5,773.7,814.6,814.6z M641.2,630.5c-23.6-28.9-35.3-65.1-35.3-108.5c0-39.9,9.9-73.1,29.7-99.6c19.8-26.5,46.4-39.8,79.9-39.8c25.4,0,50.5,5.2,75.3,15.7l9.5-63.1c-17.7-6.4-40.5-9.6-68.6-9.6c-55.8,0-100.7,20.6-134.7,61.9c-33.9,41.2-50.9,90.5-50.9,147.8c0,54.1,16.1,100.3,48.4,138.6c32.3,38.3,78.9,57.4,140,57.4c32,0,57.6-6.2,76.7-18.5l3.5-53.8c-31.3,9.9-55.8,14.9-73.5,14.9C698.1,673.9,664.7,659.4,641.2,630.5z M386.2,497.5c-29.1,86-43.6,135.1-43.6,147.4h-3.2c0-12.9-15.3-63.9-45.9-153c-30.6-89.2-45.9-140.2-45.9-153h-68.6c0,11,21,72.6,63.1,185c42.1,112.3,63.1,177.9,63.1,196.6h47.4c0-14.5,23.9-78.4,71.6-191.8c47.7-113.4,71.6-176.7,71.6-189.8h-65.7C429.8,358.7,415.3,411.6,386.2,497.5z"/></g>
</svg>